<svg xmlns="http://www.w3.org/2000/svg" width="40.398" height="40.398" viewBox="0 0 40.398 40.398">
  <defs>
    <style>
      .cls-1 {
        fill: #f9ebb7;
      }
    </style>
  </defs>
  <path id="Friends_Icon" data-name="Friends Icon" class="cls-1" d="M12.625,21.882A7.575,7.575,0,1,1,20.2,14.308a7.575,7.575,0,0,1-7.575,7.575ZM25.249,33.665a8.426,8.426,0,0,0-8.416-8.416H8.416A8.426,8.426,0,0,0,0,33.665V40.4H25.249Zm4.208-18.516a7.575,7.575,0,1,1,7.575-7.575,7.575,7.575,0,0,1-7.575,7.575Zm2.525,3.367H23.566a8.068,8.068,0,0,0-.882.089,10.965,10.965,0,0,1-2.653,3.73,11.8,11.8,0,0,1,8.585,11.33H40.4V26.932A8.426,8.426,0,0,0,31.982,18.516Z"/>
</svg>
