<svg xmlns="http://www.w3.org/2000/svg" width="57.506" height="50.871" viewBox="0 0 57.506 50.871">
  <defs>
    <style>
      .cls-1 {
        fill: #f9ebb7;
        fill-rule: evenodd;
      }
    </style>
  </defs>
  <path id="Bucket_icon" data-name="Bucket icon" class="cls-1" d="M.039,4.844A4.29,4.29,0,0,1,4.309,0H53.2a4.29,4.29,0,0,1,4.27,4.844v0l0,.033-.743,4.808a5.248,5.248,0,0,1-2.558,3.75L49.855,45.96v.011a5.6,5.6,0,0,1-5.529,4.9H13.161a5.6,5.6,0,0,1-5.529-4.9v-.011l-.524-3.954A8.246,8.246,0,0,1,1.261,37.4c-1.308-2.935-.768-6.438.145-9.508a53.392,53.392,0,0,1,2.871-7.25l-.954-7.2A5.236,5.236,0,0,1,.765,9.678l-.721-4.8Zm50.8,3.316.336-2.171H6.32L6.647,8.16ZM39.847,14.149c-.362.682-.974,1.857-1.556,2.976l-.006.011c-.557,1.07-1.086,2.085-1.327,2.537l-.04.075c-3.108,5.82-5.982,11.2-9.423,15.168a21.985,21.985,0,0,1-7.347,5.732,19.79,19.79,0,0,1-6.9,1.75l.329,2.483H43.9l4.069-30.732Zm-8.27,2.794,0,0c.241-.451.777-1.479,1.35-2.579l.11-.211H9.513l2.953,22.3a13.867,13.867,0,0,0,5.123-1.225,15.988,15.988,0,0,0,5.326-4.213c2.956-3.406,5.481-8.118,8.662-14.067ZM5.73,31.608q-.011.065-.021.129a6.561,6.561,0,0,0,.2,3.624,2.618,2.618,0,0,0,.4.642l.021.024a3.159,3.159,0,0,0,1.055.766L6.361,29.038q-.042.136-.082.271a19.785,19.785,0,0,0-.549,2.3Z"/>
</svg>
